<svg width="400" height="174" viewBox="0 0 400 174" fill="none" xmlns="http://www.w3.org/2000/svg">
<path d="M3 106L0 128L3 150C3 152 6 152 6 150L9 128L6 106C6 103 3 103 3 106ZM21 92C21 89 18 89 18 92L13 128L17 163C17 166 21 166 21 163L25 128L21 92ZM80 62L77 128L79 168C79 176 86 176 86 168L90 128L86 62C86 57 80 57 80 62ZM49 84L45 128L48 168C48 174 53 174 53 168L57 128L53 84C53 81 49 81 49 84ZM119 168L122 128L119 40C119 34 112 34 112 40L109 128L111 168C111 176 119 176 119 168ZM187 168L189 128L187 26C187 19 177 19 177 26L175 128L177 168C177 176 187 176 187 168ZM153 168L156 128L153 39C153 33 144 33 144 39L142 128L144 168C144 176 153 176 153 168ZM70 168L73 128L70 87C70 84 64 84 64 87L61 128L64 168C64 175 70 175 70 168ZM37 168L41 128L37 85C37 82 33 82 33 85L29 128L33 168C33 172 37 172 37 168ZM161 43L159 128L160 168C160 176 170 176 170 168L172 128L170 43C170 36 161 36 161 43ZM103 168L106 128L103 47C103 41 96 41 96 47L93 128L95 168C95 176 103 176 103 168ZM136 168L139 128L136 37C136 31 128 31 128 37L125 128L128 168C128 176 136 176 136 168ZM332 79C327 22 268 -15 214 6C210 8 209 9 209 12V168C209 171 211 174 214 174H351C378 174 400 152 400 125C400 88 365 68 332 79ZM194 17L191 128L194 168C194 176 204 176 204 168L207 128L204 17C204 10 194 10 194 17Z" fill="white"/>
</svg>
