<svg width="109" height="59" viewBox="0 0 109 59" fill="none" xmlns="http://www.w3.org/2000/svg">
<path d="M0.75 48.1984C0.75 49.5125 1.23363 50.5061 2.20067 51.1796C3.16782 51.853 4.2016 52.0911 5.30211 51.8941C6.33589 51.697 7.06123 51.3356 7.47823 50.81C7.89502 50.2845 8.10352 49.4139 8.10352 48.1984V33.9084C8.10352 32.89 7.74505 32.0276 7.02802 31.3214C6.31109 30.6151 5.43568 30.262 4.4018 30.262C3.40133 30.262 2.54264 30.6151 1.8256 31.3214C1.10857 32.0276 0.75 32.89 0.75 33.9084V48.1984ZM12.2553 54.3086C12.2553 55.2614 12.5972 55.9758 13.2808 56.4522C13.9645 56.9286 14.8399 57.1667 15.907 57.1667C17.0075 57.1667 17.8996 56.9285 18.5833 56.4522C19.2669 55.9759 19.6088 55.2614 19.6088 54.3086V20.9981C19.6088 20.0126 19.2502 19.1666 18.5333 18.4604C17.8162 17.7542 16.9408 17.401 15.907 17.401C14.9066 17.401 14.0478 17.7542 13.3308 18.4604C12.6138 19.1667 12.2553 20.0126 12.2553 20.9981V54.3086ZM23.7107 55.8855C23.7107 56.8382 24.0608 57.5527 24.7611 58.0291C25.4615 58.5054 26.3619 58.7436 27.4625 58.7436C28.5296 58.7436 29.405 58.5054 30.0886 58.0291C30.7723 57.5527 31.1142 56.8382 31.1142 55.8855V25.4822C31.1142 24.4639 30.7556 23.5933 30.0387 22.8706C29.3217 22.1479 28.463 21.7866 27.4625 21.7866C26.4286 21.7866 25.5449 22.1479 24.8113 22.8706C24.0776 23.5933 23.7108 24.4639 23.7108 25.4822V55.8855H23.7107ZM35.216 56.0333C35.216 57.8401 36.4499 58.7436 38.9177 58.7436C41.3855 58.7436 42.6193 57.8401 42.6193 56.0333V6.75739C42.6193 3.99794 41.7689 2.43757 40.0681 2.07618C38.9676 1.81334 37.8837 2.12546 36.8166 3.01242C35.7494 3.89939 35.2159 5.14764 35.2159 6.75739V56.0333H35.216ZM46.9215 57.4623V3.85011C46.9215 2.14192 47.4384 1.12358 48.4723 0.795006C50.7066 0.26943 52.9243 0.0065918 55.1253 0.0065918C60.2276 0.0065918 64.9799 1.18921 69.3819 3.55446C73.7839 5.9197 77.3439 9.14727 80.0618 13.2372C82.7798 17.3272 84.3555 21.8358 84.789 26.7635C86.8232 25.9094 88.9909 25.4823 91.2919 25.4823C95.9608 25.4823 99.9543 27.1084 103.272 30.3606C106.591 33.613 108.25 37.5221 108.25 42.0884C108.25 46.6875 106.591 50.6131 103.272 53.8653C99.9543 57.1176 95.9775 58.7437 91.3419 58.7437L47.8217 58.6944C47.5215 58.5958 47.2964 58.4151 47.1463 58.1524C46.9963 57.8896 46.9215 57.6594 46.9215 57.4623Z" fill="#FF5500"/>
</svg>
